Coordinates
version=1
nRows=19
nColumns=33
inDegrees=yes

Units are S.I. units (second, meters, Newtons, ...)
Angles are in degrees.

endheader
time	ground_thorax_rot_x	ground_thorax_rot_y	ground_thorax_rot_z	ground_thorax_tx	ground_thorax_ty	ground_thorax_tz	clav_prot_r	clav_elev_r	scapula_abduction_r	scapula_elevation_r	scapula_upward_rot_r	scapula_winging_r	shoulder_elv_r	plane_of_elev_r	axial_rot_r	elbow_flexion_r	pro_sup_r	wrist_flex_r	wrist_dev_r	clav_prot_l	clav_elev_l	scapula_abduction_l	scapula_elevation_l	scapula_upward_rot_l	scapula_winging_l	shoulder_elv_l	plane_of_elev_l	axial_rot_l	elbow_flexion_l	pro_sup_l	wrist_flex_l	wrist_dev_l
      5.12000000	    -11.45248215	    -41.17215506	     72.00703937	     -5.93154519	    804.85263192	    -40.65039202	     23.86663181	    -45.00000000	     44.12300460	    -45.00000000	    -26.30497640	   2398.82277880	  -1542.09407152	    142.14679842	   -179.99999979	   3589.09408728	    422.96530449	     24.18093995	     17.41216152	     -3.56350494	     32.82073687	    -27.22543994	    -45.00000000	    -45.00000000	   2969.35358359	  -6043.05986602	     25.78876327	     42.80407371	   1788.78195632	   -315.47607654	     12.98736026	    -15.52478651
      5.13000000	    -11.36687204	    -41.17333633	     72.08680875	     -5.16054332	    804.01791053	    -40.54121972	     24.01924741	    -45.00000000	     44.00027298	    -45.00000000	    -26.58233481	   2398.79643521	  -1542.31810297	    142.06630229	   -179.99999979	   3589.07900285	    422.88863931	     24.12141481	     17.01252536	     -3.81537646	     32.85959012	    -27.22272166	    -45.00000000	    -45.00000000	   2969.60889313	  -6043.21690554	     25.95960550	     42.83382676	   1788.63957948	   -315.41322611	     13.24776828	    -15.70811638
      5.14000000	    -11.14998988	    -41.18078087	     72.43314412	     -4.40054695	    803.19087131	    -40.44192060	     23.95273478	    -45.00000000	     43.90197781	    -45.00000000	    -26.91197418	   2398.79418060	  -1542.43316615	    142.09729834	   -179.99999979	   3589.13523062	    422.98002160	     23.87150616	     17.11574212	     -3.69134158	     32.75474138	    -27.02184125	    -45.00000000	    -45.00000000	   2969.41013053	  -6043.14096136	     25.87967180	     42.71547830	   1788.65739190	   -315.35429962	     13.11029343	    -15.52469381
      5.15000000	    -11.03415229	    -41.14356259	     72.55099065	     -3.65631362	    802.37942254	    -40.35258090	     24.07958354	    -45.00000000	     43.76705959	    -45.00000000	    -27.22911526	   2398.78193159	  -1542.63795024	    141.95471670	   -179.99999979	   3589.08510421	    422.97753258	     23.92041318	     16.94570500	     -3.89761912	     32.83923595	    -26.86734097	    -45.00000000	    -45.00000000	   2969.44169681	  -6043.22531775	     26.00518970	     42.63121734	   1788.69856474	   -315.32756920	     13.14488588	    -15.56926968
      5.16000000	    -10.78161526	    -41.13993684	     72.95735746	     -2.92273192	    801.58032292	    -40.27135225	     24.04189985	    -45.00000000	     43.71389097	    -45.00000000	    -27.53345232	   2398.76857086	  -1542.67459185	    142.07411652	   -179.99999979	   3589.23145988	    423.10817372	     23.61377980	     17.12545339	     -3.68719880	     32.67530640	    -26.78771842	    -45.00000000	    -45.00000000	   2969.28717916	  -6043.23920957	     25.77661354	     42.51146223	   1788.76726619	   -315.28669717	     12.98075361	    -15.37850637
      5.17000000	    -10.74557272	    -41.09961692	     73.00086264	     -2.19970051	    800.79470920	    -40.19686136	     24.19071533	    -45.00000000	     43.54719044	    -45.00000000	    -27.89772676	   2398.68911800	  -1542.92813814	    141.88071543	   -179.99999979	   3589.06929235	    423.05787943	     23.89845962	     16.77669041	     -4.09699637	     32.87417224	    -26.64752429	    -45.00000000	    -45.00000000	   2969.44285890	  -6043.33840267	     26.06473084	     42.43864382	   1788.72846881	   -315.27301124	     13.17456723	    -15.57789833
      5.18000000	    -10.44514642	    -41.10974200	     73.37441439	     -1.48670288	    800.02257914	    -40.12813565	     24.22775134	    -45.00000000	     43.55100741	    -45.00000000	    -28.04232709	   2398.75030247	  -1542.99462677	    141.99404819	   -179.99999979	   3589.27753931	    423.19121346	     23.73443222	     17.05043455	     -3.79919040	     32.68811072	    -26.73407342	    -45.00000000	    -45.00000000	   2969.38339001	  -6043.36985144	     25.81406017	     42.35533793	   1788.61743871	   -315.21115382	     13.09453449	    -15.40393525
      5.19000000	    -10.36779066	    -41.05984812	     73.52542307	     -0.78430253	    799.26386095	    -40.06477361	     24.22685409	    -45.00000000	     43.35944712	    -45.00000000	    -28.50836678	   2398.74069139	  -1543.21163052	    141.95443545	   -179.99999979	   3589.25428652	    423.27874301	     23.37714329	     16.76417595	     -4.07927740	     32.76568839	    -26.44472049	    -45.00000000	    -45.00000000	   2969.15562725	  -6043.36616133	     25.83257712	     42.13768773	   1788.76529393	   -315.19084689	     12.91461380	    -15.26539379
      5.20000000	    -10.05135517	    -41.04697194	     73.94756979	     -0.09427669	    798.51913964	    -40.00715269	     24.27244398	    -45.00000000	     43.35928469	    -45.00000000	    -28.66673506	   2398.65519837	  -1543.15409010	    141.98284817	   -179.99999979	   3589.32786685	    423.35438646	     23.64999491	     17.09120066	     -3.79688355	     32.60015350	    -26.47665236	    -45.00000000	    -45.00000000	   2969.33977423	  -6043.45281430	     25.82403043	     42.16940623	   1788.69759563	   -315.16598478	     13.07642281	    -15.38799162
      5.21000000	     -9.97972685	    -41.04269856	     74.02400391	      0.58678407	    797.78267218	    -39.95555239	     24.38626686	    -45.00000000	     43.19519013	    -45.00000000	    -29.00671971	   2398.68992365	  -1543.43665132	    141.94916630	   -179.99999979	   3589.34694244	    423.40657586	     23.30455872	     16.71882181	     -4.16950591	     32.72000638	    -26.45632734	    -45.00000000	    -45.00000000	   2969.24768356	  -6043.52757456	     25.70575513	     41.97940358	   1788.69973353	   -315.11225962	     12.94591669	    -15.24767192
      5.22000000	     -9.72408291	    -41.01755376	     74.32778556	      1.25157444	    797.06013561	    -39.91147135	     24.36195350	    -45.00000000	     43.20555631	    -45.00000000	    -29.24970663	   2398.65372508	  -1543.46130984	    142.02654515	   -179.99999979	   3589.41871646	    423.49284763	     23.32395897	     16.89481724	     -3.96451598	     32.62841234	    -26.31912041	    -45.00000000	    -45.00000000	   2969.19607455	  -6043.53631735	     25.69006124	     41.85850188	   1788.64187352	   -315.06794644	     12.96405241	    -15.23050051
      5.23000000	     -9.61594636	    -40.96817491	     74.46201998	      1.91123454	    796.33713108	    -39.87524907	     24.46184507	    -45.00000000	     42.95324982	    -45.00000000	    -29.58575069	   2398.70845570	  -1543.66463334	    141.90191304	   -179.99999979	   3589.39818865	    423.54427497	     23.02921950	     16.62292561	     -4.22964473	     32.68235620	    -26.11943631	    -45.00000000	    -45.00000000	   2969.06390398	  -6043.56353129	     25.73533968	     41.69873411	   1788.72618591	   -315.03255526	     12.87679417	    -15.15519047
      5.24000000	     -9.28400848	    -40.92332519	     74.86136036	      2.55279318	    795.62617093	    -39.84931175	     24.43542034	    -45.00000000	     43.01321330	    -45.00000000	    -29.81879279	   2398.66242053	  -1543.64165487	    142.00481888	   -179.99999979	   3589.54845975	    423.59461973	     23.15829973	     16.90397335	     -3.95814878	     32.56253709	    -26.07020110	    -45.00000000	    -45.00000000	   2969.09983280	  -6043.61910713	     25.67454960	     41.65121240	   1788.73582754	   -315.00309023	     12.90344945	    -15.18879589
      5.25000000	     -9.19124996	    -40.89708905	     74.94956765	      3.18350833	    794.91807707	    -39.83518458	     24.59695960	    -45.00000000	     42.86476329	    -45.00000000	    -30.08352965	   2398.65091132	  -1543.83655196	    141.94349820	   -179.99999979	   3589.53718584	    423.59155877	     22.97780859	     16.63220323	     -4.26241302	     32.63285305	    -26.11722334	    -45.00000000	    -45.00000000	   2969.14982035	  -6043.73556813	     25.65062978	     41.52265166	   1788.68750355	   -314.95447096	     12.91395104	    -15.15965190
      5.26000000	     -8.95994316	    -40.83119528	     75.25720879	      3.79960590	    794.21679419	    -39.83528689	     24.58295885	    -45.00000000	     42.78901932	    -45.00000000	    -30.36094483	   2398.64808297	  -1543.85362832	    142.01488866	   -179.99999979	   3589.60894597	    423.63908976	     22.80977636	     16.68141206	     -4.18096520	     32.57857881	    -26.01532415	    -45.00000000	    -45.00000000	   2969.03717587	  -6043.72875157	     25.57412110	     41.39246815	   1788.69739540	   -314.92567884	     12.87144806	    -15.10715015
      5.27000000	     -8.78559627	    -40.79284817	     75.40244132	      4.40628863	    793.51634305	    -39.85171198	     24.67165542	    -45.00000000	     42.66011208	    -45.00000000	    -30.63427793	   2398.65765725	  -1544.00242178	    141.95605314	   -179.99999979	   3589.63376695	    423.63996058	     22.67473750	     16.57541890	     -4.30595872	     32.58996113	    -25.88276194	    -45.00000000	    -45.00000000	   2969.02722502	  -6043.78988458	     25.58623137	     41.25230856	   1788.67851971	   -314.90236453	     12.86017741	    -15.06523469
      5.28000000	     -8.58086712	    -40.74559848	     75.66682279	      4.99660446	    792.82537713	    -39.88589879	     24.70907848	    -45.00000000	     42.57395625	    -45.00000000	    -30.94708725	   2398.69835010	  -1544.06220353	    142.01233686	   -179.99999979	   3589.68138985	    423.65564995	     22.53635207	     16.59426127	     -4.27639119	     32.55209883	    -25.81555898	    -45.00000000	    -45.00000000	   2968.94782617	  -6043.78615417	     25.53220297	     41.12405486	   1788.67591773	   -314.89591383	     12.84295467	    -15.02491500
      5.29000000	     -8.42870523	    -40.72457976	     75.83497133	      5.57594180	    792.13857428	    -39.93820033	     24.76501785	    -45.00000000	     42.42706273	    -45.00000000	    -31.27427741	   2398.74715166	  -1544.22348118	    142.00411383	   -179.99999979	   3589.65152162	    423.66568302	     22.31024971	     16.49768519	     -4.38714686	     32.55527361	    -25.63405567	    -45.00000000	    -45.00000000	   2968.89520888	  -6043.76473882	     25.55237141	     40.93421622	   1788.67692223	   -314.89464180	     12.79953026	    -14.94821895
      5.30000000	     -8.17329846	    -40.65750923	     76.08548782	      6.14318351	    791.45909110	    -40.00737191	     24.81416101	    -45.00000000	     42.33405910	    -45.00000000	    -31.56980984	   2398.77584847	  -1544.23919839	    142.00988025	   -179.99999979	   3589.75915882	    423.65121637	     22.23445914	     16.53441019	     -4.32462741	     32.51744449	    -25.54133546	    -45.00000000	    -45.00000000	   2968.82948260	  -6043.83897379	     25.49380164	     40.83674976	   1788.70987790	   -314.91788190	     12.79536822	    -14.94107014
